PathFileType	4	(X/Y/Z)	C:/Users/beibeiliu/ov580/test_trc/User3\sequence.14_training_dense_right.trc
DataRate	CameraRate	NumFrames	NumMarkers	Units	OrigDataRate	OrigDataStartFrame	OrigNumFrames
120	120	8	19	mm	120	216	246
Frame#	Time	ThumbCMC			ThumbMCP			ThumbIP			ThumbTip			IndexMCP			IndexPIP			IndexTip			MiddleMCP			MiddlePIP			MiddleTip			RingMCP			RingPIP			RingTip			PinkyMCP			PinkyPIP			PinkyTip			BackHand1			BackHand2			BackHand3	
		X0	Y0	Z0	X1	Y1	Z1	X2	Y2	Z2	X3	Y3	Z3	X4	Y4	Z4	X5	Y5	Z5	X6	Y6	Z6	X7	Y7	Z7	X8	Y8	Z8	X9	Y9	Z9	X10	Y10	Z10	X11	Y11	Z11	X12	Y12	Z12	X13	Y13	Z13	X14	Y14	Z14	X15	Y15	Z15	X16	Y16	Z16	X17	Y17	Z17	X18	Y18	Z18	
215	1.79167	156.715	-12.654	12.1382	142.76	-11.8091	-16.3382	128.32	-8.89204	-39.1306	117.69	-8.47695	-60.3991	187.629	26.6933	-47.4245	182.271	41.4727	-68.4243	179.274	52.2983	-89.7951	213.865	20.2783	-51.2853	220.568	29.4746	-73.1858	225.397	39.6844	-105.091	232.473	-2.29128	-45.8922	239.046	8.50527	-70.3926	244.776	11.8503	-91.664	240.462	-27.2027	-38.3793	250.919	-30.725	-55.8821	260.058	-29.7909	-74.0863	222.486	-11.7559	3.75419	220.057	-21.4994	30.7452	192.837	3.19952	16.0153	
216	1.8	150.504	-17.3289	14.1888	139.342	-19.6153	-13.4439	125.847	-17.1569	-40.7836	114.506	-16.9443	-61.2052	174.406	27.5726	-42.1172	169.032	41.4156	-63.9656	165.875	53.9023	-86.2217	202.817	24.1386	-44.3378	208.822	39.0677	-73.1534	205.899	51.5015	-99.7983	222.922	10.2103	-43.5334	230.929	18.47	-63.7845	235.424	27.0824	-92.123	236.77	-17.2638	-36.335	245.573	-14.2038	-57.3498	260.152	-14.1795	-76.6157	216.773	-3.48729	3.38788	218.961	-16.0929	30.174	187.397	-0.620448	20.0981	
217	1.80833	148.247	-23.0709	15.5736	132.773	-25.3206	-11.1546	118.54	-23.6348	-40.0392	113.532	-27.254	-58.5973	162.382	27.0562	-39.5848	154.176	40.4884	-62.2575	150.096	52.1062	-85.2065	196.046	28.795	-46.1031	197.578	42.5053	-69.9969	195.867	55.0037	-101.239	215.418	15.0404	-42.4451	223.867	25.2129	-64.2686	225.126	34.8885	-88.8741	232.894	-10.6596	-34.7644	242.346	-6.80269	-53.5365	251.525	0.262418	-71.3601	211.807	-4.19544	5.29233	214.218	-12.3254	30.192	180.713	0.30639	18.9193	
218	1.81667	145.366	-26.4321	16.168	130.233	-30.2196	-12.9314	114.808	-30.4149	-40.0657	106.606	-33.9079	-58.2654	154.835	23.3904	-39.9277	144.59	36.0432	-63.1951	140.878	47.921	-86.8804	184.924	28.6953	-43.7977	187.954	43.7236	-70.1522	185.179	55.3779	-100.42	208.484	16.6219	-42.6963	216.36	27.021	-60.8035	218.211	35.9377	-87.7836	224.972	-6.14767	-33.6263	238.598	-3.77558	-49.6936	246.518	5.38776	-73.5976	205.602	-0.46868	8.16253	206.406	-10.5247	33.3016	176.947	0.092093	19.0761	
219	1.825	143.404	-31.8166	16.9277	125.194	-37.0013	-10.8156	112.474	-37.6972	-39.0044	105.526	-42.9664	-58.0962	152.373	17.7404	-41.287	140.404	30.4186	-66.2511	133.031	39.0707	-85.7594	180.05	26.9883	-45.0118	179.811	39.1198	-68.8062	175.846	49.8989	-98.7201	205.286	14.9166	-42.0173	207.501	26.4214	-62.8653	210.336	35.7389	-89.2225	221.991	-4.78751	-35.5018	231.267	-2.62017	-50.3588	243.379	3.0492	-70.3111	201.36	-1.9357	6.08254	201.438	-11.6574	32.6204	168.7	-4.6096	21.2807	
220	1.83333	136.711	-34.6179	17.9254	124.817	-41.58	-12.1921	109.81	-47.5052	-36.9187	104.154	-51.2275	-60.143	141.841	12.609	-43.7865	131.039	21.9084	-68.5182	122.813	28.7713	-89.8887	176.165	22.2006	-47.1394	171.187	34.9017	-73.6755	172.697	42.495	-101.741	197.271	9.38109	-39.3451	204.141	22.1421	-64.305	205.019	29.5416	-90.9747	217.166	-8.84823	-35.5506	232.476	-5.00896	-53.8528	238.222	0.97208	-70.7397	198.143	-3.34399	4.95354	196.908	-13.8823	34.376	164.597	-4.61169	15.4425	
221	1.84167	135.161	-38.3083	16.9157	120.689	-49.062	-8.08577	110.191	-54.4911	-33.0557	103.245	-59.8888	-58.1947	140.94	6.16644	-46.6908	131.145	11.7616	-68.4785	118.757	16.205	-91.693	172.276	13.9519	-47.2994	165.457	27.0158	-76.176	166.597	34.5419	-104.584	194.956	3.47647	-41.3034	200.414	16.5061	-68.1027	199.978	22.2406	-92.3669	218.588	-14.2213	-33.1065	224.999	-10.8533	-52.076	239.298	-7.38141	-69.4067	192.845	-4.70774	6.84274	192.556	-14.001	34.242	161.617	-6.80918	18.7567	
222	1.85	133.905	-40.8793	16.435	121.939	-52.2405	-5.51189	105.883	-60.0738	-34.4094	101.112	-69.3944	-52.4345	138.191	-2.03825	-49.4725	129.371	3.05094	-74.6332	119.341	3.95687	-94.5857	168.261	6.64686	-49.3408	164.479	18.051	-78.9113	162.931	24.3185	-106.228	192.013	-0.0465486	-46.7575	198.061	7.389	-69.3088	201.587	12.5611	-98.1284	217.055	-18.0102	-37.4304	225.36	-16.4776	-55.7806	233.401	-12.7246	-70.9951	192.863	-7.50635	3.88915	191.927	-13.7209	29.6065	157.1	-9.78463	14.1657	
